# xmcd
#
# Track frame offsets: 
#        150
#        9810
#        20867
#        34032
#        47772
#        56240
#        71785
#        86640
#        106742
#        122040
#        136320
#        148567
#        162427
#        176795
#        189487
#        201762
#
# Disc length: 2863 seconds
#
# Revision: 7
# Processed by: cddbd v1.5.2PL0 Copyright (c) Steve Scherf et al.
# Submitted via: ExactAudioCopyFreeDBPlugin 1.0
#
DISCID=e30b2d10
DTITLE=Various Artist - Trojan Box Set:  A Jamaican Story
DYEAR=1999
DGENRE=Reggae
TTITLE0=Alton Ellis - Soul Groover
TTITLE1=Alton Ellis - Big Bad Boy
TTITLE2=Alton Ellis - You've Made Me So Very Happy
TTITLE3=Alton Ellis - Lord Deliver Us
TTITLE4=Alton Ellis - Give Me Your Love
TTITLE5=Alton Ellis - Truly
TTITLE6=Alton Ellis - What Does it Take to Win Your Love
TTITLE7=Alton Ellis - I am Still in Love with You
TTITLE8=Pat Kelly - Soulful Love
TTITLE9=Pat Kelly - How Long Will it Take
TTITLE10=Pat Kelly - Talk About Love
TTITLE11=Pat Kelly - The Prophet
TTITLE12=Pat Kelly - Loney Man
TTITLE13=Pat Kelly - I Wish it Would Rain
TTITLE14=Pat Kelly - He Ain't Heary
TTITLE15=Pat Kelly - Best Time of My Life
EXTD=
EXTT0=
EXTT1=
EXTT2=
EXTT3=
EXTT4=
EXTT5=
EXTT6=
EXTT7=
EXTT8=
EXTT9=
EXTT10=
EXTT11=
EXTT12=
EXTT13=
EXTT14=
EXTT15=
PLAYORDER=
